:SAMPLES-PER-SECOND 30
:FULLY-SPECIFIED
:DEGREES
371
root  24.2269 38.3015 29.9205 -177.354 76.4976 -174.873
RightUpLeg  24.1793 -19.4628 -14.7896
RightLeg  19.0248 10.529 4.16518
RightFoot  -9.44045 -0.384261 17.7957
RightToes  -5.8209e-011 0 -3.6325e-017
Spine  -1.2624 4.43224 7.31946
Spine1  9.66886 6.68805 -7.91039
HEad  -9.77188 30.1832 47.9146
LeftShoulder1  6.85001 -10.1161 -43.7552
LeftArm  -7.75744 45.6817 -24.9049
LeftForeArm  23.2288 -2.72795 -4.18281
LeftHand  -0.244104 0.0205437 5.32207
RightShoulder  6.17275 9.22225 42.2231
RightArm  6.33384 -1.83375 29.6995
RightForeArm  2.39347 21.0662 5.00148
RightHand  -0.423871 -1.00671 -11.1648
LeftUpLeg  -19.0261 6.74426 -4.37956
LeftLeg  5.90458 34.6582 -4.97354
LeftFoot  1.14608 -1.6171 14.747
LeftToes  1.76439e-010 -1.07097e-011 2.32476e-011
372
root  25.8941 38.3312 29.3036 174.293 74.2391 176.852
RightUpLeg  19.9679 -15.6802 -15.4512
RightLeg  29.4267 7.45994 4.17015
RightFoot  0.397795 -1.94369 19.2348
RightToes  -5.8209e-011 0 -3.6325e-017
Spine  -1.27551 3.57334 3.05853
Spine1  8.45857 5.39814 -6.45791
HEad  -9.44231 29.3293 50.7802
LeftShoulder1  7.00942 -10.2282 -44.4393
LeftArm  -7.35979 43.8374 -24.0013
LeftForeArm  24.4829 -2.37279 -4.23382
LeftHand  -0.244104 0.0205437 5.32207
RightShoulder  6.15673 9.08933 42.5788
RightArm  0.823144 -4.38807 31.2094
RightForeArm  5.40751 17.2366 5.68841
RightHand  -0.486587 -0.651688 -11.9186
LeftUpLeg  -19.3271 13.5297 -10.2674
LeftLeg  12.0844 24.9571 -0.265565
LeftFoot  0.694205 -1.96359 18.4336
LeftToes  1.76439e-010 -1.07097e-011 2.32476e-011
373
root  27.2591 38.3867 28.6915 169.727 71.8348 172.506
RightUpLeg  12.7081 -10.978 -14.6145
RightLeg  42.178 4.07212 3.69426
RightFoot  12.3208 -3.18841 15.5958
RightToes  -5.8209e-011 0 -3.6325e-017
Spine  -0.273402 2.86135 1.47134
Spine1  7.73201 4.75084 -7.24751
HEad  -3.24519 18.3235 26.3074
LeftShoulder1  7.30537 -10.5984 -45.1341
LeftArm  -6.85843 39.5379 -23.0793
LeftForeArm  26.4938 -3.02719 -4.57195
LeftHand  -0.244104 0.0205437 5.32207
RightShoulder  6.07884 9.03045 42.2161
RightArm  -5.85904 -6.98784 33.4481
RightForeArm  8.83562 13.3386 6.16969
RightHand  -0.463904 -0.781859 -11.6468
LeftUpLeg  -18.1249 16.82 -13.7155
LeftLeg  15.1937 19.4698 1.88009
LeftFoot  -2.11337 -1.45589 17.9679
LeftToes  1.76439e-010 -1.07097e-011 2.32476e-011
374
root  28.4542 38.4161 28.0872 166.99 70.376 170.167
RightUpLeg  4.88961 -6.82181 -14.0067
RightLeg  53.7659 2.28593 2.9533
RightFoot  18.1794 -2.88131 11.3107
RightToes  -5.8209e-011 0 -3.6325e-017
Spine  0.758598 2.81108 1.48051
Spine1  8.06246 4.89798 -9.0226
HEad  20.8002 -18.1651 -64.7289
LeftShoulder1  7.54345 -10.8889 -45.6871
LeftArm  -7.23224 33.7212 -22.8359
LeftForeArm  27.1088 -4.70726 -4.88564
LeftHand  -0.244104 0.0205437 5.32207
RightShoulder  6.1126 9.20888 41.8288
RightArm  -8.75306 -9.05573 34.8904
RightForeArm  11.4945 10.25 6.27904
RightHand  -0.358934 -1.32408 -10.1178
LeftUpLeg  -15.4372 15.0688 -13.8167
LeftLeg  16.6836 20.3692 1.6364
LeftFoot  -4.96004 -0.900489 16.6103
LeftToes  1.76439e-010 -1.07097e-011 2.32476e-011
375
root  29.7075 38.6729 27.4126 167.02 68.4217 170.67
RightUpLeg  -1.68822 -4.66909 -13.5264
RightLeg  61.1765 0.70059 0.872369
RightFoot  17.2917 -2.02436 8.36843
RightToes  -5.8209e-011 0 -3.6325e-017
Spine  0.945742 2.52015 1.93709
Spine1  8.62613 4.70497 -9.41426
HEad  20.1998 -15.8947 -58.704
LeftShoulder1  7.6801 -10.941 -46.3673
LeftArm  -8.83079 27.42 -23.1777
LeftForeArm  25.8628 -7.30632 -4.94848
LeftHand  -0.244104 0.0205437 5.32207
RightShoulder  6.25316 9.495 41.8504
RightArm  -6.94586 -10.578 34.8194
RightForeArm  15.5296 8.52747 6.58427
RightHand  -0.255782 -1.87255 -8.24398
LeftUpLeg  -11.2615 10.118 -12.6571
LeftLeg  15.2444 23.7174 0.0714732
LeftFoot  -6.07147 -0.714418 16.2204
LeftToes  1.76439e-010 -1.07097e-011 2.32476e-011
376
root  30.9238 39.0256 26.7298 169.589 64.865 173.559
RightUpLeg  -7.11398 -4.66475 -12.7535
RightLeg  64.038 -0.660997 -2.04198
RightFoot  13.8198 -1.39812 6.69456
RightToes  -5.8209e-011 0 -3.6325e-017
Spine  0.746267 1.63417 2.23053
Spine1  8.82025 3.61909 -8.40823
HEad  22.169 -16.0447 -59.9156
LeftShoulder1  7.80938 -10.9583 -47.1081
LeftArm  -10.2936 21.1403 -23.8654
LeftForeArm  23.9877 -11.112 -4.8082
LeftHand  -0.244104 0.0205437 5.32207
RightShoulder  6.30678 9.57112 41.9724
RightArm  -2.95525 -12.331 34.108
RightForeArm  20.593 8.80184 7.00986
RightHand  -0.208528 -2.15043 -7.19662
LeftUpLeg  -7.21399 5.42012 -11.9767
LeftLeg  12.7399 24.9475 -1.20336
LeftFoot  -6.55872 -0.632834 15.9782
LeftToes  1.76439e-010 -1.07097e-011 2.32476e-011
377
root  32.0351 39.2442 26.115 172.249 60.469 176.473
RightUpLeg  -11.8905 -5.00278 -11.6884
RightLeg  63.383 -1.69515 -4.24876
RightFoot  11.3823 -0.929492 5.01758
RightToes  -5.8209e-011 0 -3.6325e-017
Spine  1.10762 0.70848 2.15457
Spine1  8.432 2.27774 -7.17951
HEad  24.5471 -16.1671 -60.5712
LeftShoulder1  7.97081 -11.1223 -47.5527
LeftArm  -9.10064 15.1482 -24.981
LeftForeArm  22.0495 -16.6044 -4.30655
LeftHand  -0.244104 0.0205437 5.32207
RightShoulder  6.17456 9.36708 41.7257
RightArm  0.98113 -14.8409 33.8353
RightForeArm  22.7218 10.7099 7.1375
RightHand  -0.202929 -2.20025 -7.0799
LeftUpLeg  -4.00499 2.77569 -11.506
LeftLeg  11.4358 23.1794 -1.80981
LeftFoot  -7.59396 -0.454525 15.1931
LeftToes  1.76439e-010 -1.07097e-011 2.32476e-011
378
root  33.1319 39.3844 25.5231 173.881 56.3037 178.477
RightUpLeg  -15.8639 -4.65895 -10.6314
RightLeg  59.7449 -2.71591 -5.51173
RightFoot  9.94977 -0.446267 2.73296
RightToes  -5.8209e-011 0 -3.6325e-017
Spine  2.09429 0.0308592 1.68463
Spine1  7.57851 1.14159 -5.77597
HEad  26.4664 -16.7208 -60.4451
LeftShoulder1  8.12928 -11.3613 -47.7226
LeftArm  -6.66599 9.70512 -26.2089
LeftForeArm  22.1828 -23.4105 -3.92545
LeftHand  -0.244104 0.0205437 5.32207
RightShoulder  6.00307 9.14838 41.2343
RightArm  4.20847 -17.5852 33.9435
RightForeArm  20.2851 12.8511 7.00211
RightHand  -0.217495 -2.04623 -7.28569
LeftUpLeg  -0.78362 1.56192 -10.7871
LeftLeg  10.2907 20.0339 -2.59032
LeftFoot  -8.57064 -0.304676 14.6795
LeftToes  1.76439e-010 -1.07097e-011 2.32476e-011
